<svg width="16" height="14" xmlns="http://www.w3.org/2000/svg">
  <path d="M10.89 13.354c2.816 0 5.11-2.301 5.11-5.133V.441H14.118v7.78a3.229 3.229 0 0 1-3.229 3.25 3.194 3.194 0 0 1-1.928-.627l.083.721a5.204 5.204 0 0 0 1.22-3.344V2.265A2.27 2.27 0 0 0 7.999 0a2.27 2.27 0 0 0-2.265 2.265V8.22c0 1.248.454 2.407 1.27 3.35l.087-.734a3.405 3.405 0 0 1-1.958.635 3.261 3.261 0 0 1-3.25-3.25V.441H0v7.78c0 2.831 2.316 5.132 5.155 5.132a5.215 5.215 0 0 0 3.195-1.098l-.62-.004a5.047 5.047 0 0 0 3.16 1.102zM8.381 2.264v5.957c0 .763-.273 1.493-.767 2.085l.763-.006a3.161 3.161 0 0 1-.761-2.079V2.265c0-.21.173-.383.382-.383.21 0 .383.174.383.383z" id="a"/>
</svg>