<svg width="16" height="16" xmlns="http://www.w3.org/2000/svg">
  <path d="M9.732 15H15c.556 0 1.001-.448 1.001-1 0-.556-.448-1-1-1H9.731a2 2 0 0 0-3.464 0H1C.445 13 0 13.448 0 14c0 .556.448 1 1 1h5.268a2 2 0 0 0 3.464 0zm-3-6H15C15.555 9 16 8.552 16 8c0-.556-.448-1-1-1H6.731a2 2 0 0 0-3.464 0H1C.445 7 0 7.448 0 8c0 .556.448 1 1 1h2.268a2 2 0 0 0 3.464 0zm6-6H15C15.555 3 16 2.552 16 2c0-.556-.448-1-1-1h-2.268a2 2 0 0 0-3.464 0H1C.445 1 0 1.448 0 2c0 .556.448 1 1 1h8.268a2 2 0 0 0 3.464 0z" id="a"/>
</svg>