<svg xmlns="http://www.w3.org/2000/svg" width="15" height="14" viewBox="0 0 15 14">
  <path d="M3.1 0h1.66l3.1 13.88h-2l-.58-2.98h-2.7l-.6 2.98H0L3.1 0zm9.38 12.87h-.04c-.26.36-.52.64-.79.84-.27.2-.64.29-1.12.29-.23 0-.48-.04-.72-.1a1.8 1.8 0 0 1-.7-.4 2.04 2.04 0 0 1-.52-.8c-.14-.34-.2-.79-.2-1.33 0-.56.04-1.05.13-1.47.1-.43.26-.78.5-1.06s.56-.48.96-.62a4.88 4.88 0 0 1 1.97-.19l.53.04V7.04c0-.34-.07-.62-.22-.84-.14-.22-.4-.33-.78-.33-.26 0-.5.08-.7.25a1.2 1.2 0 0 0-.43.74H8.42c.07-.9.37-1.6.9-2.14.26-.26.57-.47.94-.62a3.45 3.45 0 0 1 2.4-.03 2.58 2.58 0 0 1 1.57 1.57c.16.39.24.84.24 1.36v6.88h-2v-1.01zm0-3.24c-.22-.04-.4-.06-.55-.06-.43 0-.8.1-1.1.3-.3.2-.46.57-.46 1.1 0 .38.1.69.28.92a.9.9 0 0 0 .76.36c.33 0 .6-.12.79-.34.18-.22.28-.53.28-.93V9.63zM3.94 4H3.9l-.98 5.03h2L3.93 4z"></path>
</svg>
