<svg xmlns="http://www.w3.org/2000/svg" width="16" height="16" viewBox="0 0 16 16">
  <path d="M8 6.2c-.8 0-1.4.8-1.4 2 0 1.3.6 2 1.4 2 1 0 1.5-.7 1.5-2 0-1.2-.6-2-1.5-2zM8.4 0C13 0 16 3 16 7.3c0 3-1.2 5-3.7 5-1.2 0-2.1-.6-2.4-1.5h-.2c-.4 1-1.1 1.5-2.3 1.5-2 0-3.3-1.7-3.3-4.1 0-2.4 1.3-4 3.2-4a2.4 2.4 0 0 1 2.2 1.3h.2c0-.6.5-1 1-1h.3c.6 0 1 .4 1 1v3.9c0 .7.3 1 .8 1 .9 0 1.3-1 1.3-2.9 0-3.5-2.2-5.8-5.8-5.8C4.6 1.7 2 4.4 2 8.2c0 3.9 2.6 6 6.8 6a11.3 11.3 0 0 0 1.5-.1.7.7 0 0 1 .8.7c0 .5-.4 1-.9 1H10l-1.4.2C3.5 16 0 13 0 8c0-4.7 3.4-8 8.4-8z"></path>
</svg>
