<svg xmlns="http://www.w3.org/2000/svg" width="16" height="16" viewBox="0 0 16 16">
  <path d="M5.95 4.273a1.016 1.016 0 0 0 1.963-.527L7.11.754a1.016 1.016 0 1 0-1.964.526l.802 2.993zm4.101 7.455a1.016 1.016 0 0 0-1.963.526l.802 2.993a1.016 1.016 0 1 0 1.963-.526l-.802-2.993zM3.746 7.913a1.016 1.016 0 0 0 .527-1.964L1.28 5.147a1.016 1.016 0 1 0-.526 1.964l2.992.802zm8.508.175a1.016 1.016 0 1 0-.526 1.963l2.992.802a1.016 1.016 0 0 0 .527-1.963l-2.993-.802zM5.798 11.64a1.016 1.016 0 1 0-1.438-1.437l-2.19 2.19a1.016 1.016 0 1 0 1.436 1.438l2.192-2.19zm4.405-7.28a1.016 1.016 0 1 0 1.437 1.438l2.191-2.191a1.016 1.016 0 0 0-1.437-1.438L10.203 4.36z"></path>
</svg>
