<svg xmlns="http://www.w3.org/2000/svg" width="14" height="16" viewBox="0 0 14 16">
  <path d="M1.63 7.7l4.74-4.78a3.33 3.33 0 0 1 4.73 0 3.4 3.4 0 0 1 0 4.78L9.75 9.07l-4.4 4.43a1.9 1.9 0 0 1-2.7 0 1.94 1.94 0 0 1 0-2.73L4 9.41l4.4-4.45a.47.47 0 0 1 .68 0c.18.2.19.5 0 .69l-4.75 4.79a.97.97 0 0 0 0 1.36c.38.38.98.38 1.36 0l4.74-4.79c.94-.94.93-2.46 0-3.4a2.37 2.37 0 0 0-3.38-.01l-4.4 4.44-1.36 1.37a3.89 3.89 0 0 0 0 5.46 3.8 3.8 0 0 0 5.42 0l4.4-4.44 1.35-1.37a5.34 5.34 0 0 0 0-7.5 5.23 5.23 0 0 0-7.44 0L.28 6.32a.97.97 0 0 0 0 1.37c.37.38.98.38 1.35 0z"></path>
</svg>
