<svg xmlns="http://www.w3.org/2000/svg" width="16" height="16" viewBox="0 0 16 16">
  <path d="M5 3.25A5.79 5.79 0 0 1 10.213 0C13.409 0 16 2.574 16 5.75s-2.591 5.75-5.787 5.75A5.79 5.79 0 0 1 5 8.25h2.4a3.775 3.775 0 0 0 2.813 1.25c2.084 0 3.774-1.679 3.774-3.75 0-2.071-1.69-3.75-3.774-3.75A3.775 3.775 0 0 0 7.4 3.25H5zm6 4.5H8.6A3.775 3.775 0 0 0 5.787 6.5c-2.084 0-3.774 1.679-3.774 3.75 0 2.071 1.69 3.75 3.774 3.75A3.775 3.775 0 0 0 8.6 12.75H11A5.79 5.79 0 0 1 5.787 16C2.591 16 0 13.426 0 10.25S2.591 4.5 5.787 4.5A5.79 5.79 0 0 1 11 7.75z"></path>
</svg>
